Coordinates
version=1
nRows=30
nColumns=21
inDegrees=yes

Units are S.I. units (second, meters, Newtons, ...)
If the header above contains a line with 'inDegrees', this indicates whether rotational values are in degrees (yes) or radians (no).

endheader
time	sternoclavicular_r2	sternoclavicular_r3	unrotscap_r3	unrotscap_r2	acromioclavicular_r2	acromioclavicular_r3	acromioclavicular_r1	unrothum_r1	unrothum_r3	unrothum_r2	elv_angle	shoulder_elev	shoulder1_r2	shoulder_rot	elbow_flexion	pro_sup	deviation	flexion	wrist_hand_r1	wrist_hand_r3
      0.00000000	     -0.00048191	      0.00020412	     -0.00020412	      0.00048191	     -0.00009758	      0.00078859	      0.00035446	     -0.00035446	     -0.00078859	      0.00009758	     60.14277612	      0.00199137	    -60.14277612	    -14.02953329	    125.80075253	      0.00000000	      0.00000000	     -0.00000000	     -0.00000000	      0.00000000
      0.10101010	     -0.00048216	      0.00020422	     -0.00020422	      0.00048216	     -0.00009763	      0.00078900	      0.00035465	     -0.00035465	     -0.00078900	      0.00009763	     59.93520758	      0.00199241	    -59.93520758	    -14.02925667	    125.79970583	      0.00000000	      0.00000000	     -0.00000000	     -0.00000000	      0.00000000
      0.20202020	     -0.00048241	      0.00020433	     -0.00020433	      0.00048241	     -0.00009768	      0.00078940	      0.00035483	     -0.00035483	     -0.00078940	      0.00009768	     59.72324954	      0.00199343	    -59.72324954	    -14.02929990	    125.79805821	      0.00000000	      0.00000000	     -0.00000000	     -0.00000000	      0.00000000
      0.30303030	     -0.00048261	      0.00020441	     -0.00020441	      0.00048261	     -0.00009772	      0.00078974	      0.00035498	     -0.00035498	     -0.00078974	      0.00009772	     59.50669065	      0.00199427	    -59.50669065	    -14.02923703	    125.79065842	      0.00000000	      0.00000000	     -0.00000000	     -0.00000000	      0.00000000
      0.40404040	     -0.00048271	      0.00020445	     -0.00020445	      0.00048271	     -0.00009774	      0.00078989	      0.00035505	     -0.00035505	     -0.00078989	      0.00009774	     59.28513689	      0.00199466	    -59.28513689	    -14.02871242	    125.77147867	      0.00000000	      0.00000000	     -0.00000000	     -0.00000000	      0.00000000
      0.50505051	     -0.00048264	      0.00020442	     -0.00020442	      0.00048264	     -0.00009772	      0.00078977	      0.00035500	     -0.00035500	     -0.00078977	      0.00009772	     59.05797801	      0.00199436	    -59.05797801	    -14.02731304	    125.73469923	      0.00000000	      0.00000000	     -0.00000000	     -0.00000000	      0.00000000
      0.60606061	     -0.00048234	      0.00020429	     -0.00020429	      0.00048234	     -0.00009766	      0.00078928	      0.00035478	     -0.00035478	     -0.00078928	      0.00009766	     58.82427994	      0.00199312	    -58.82427994	    -14.02462532	    125.67478118	      0.00000000	      0.00000000	     -0.00000000	     -0.00000000	      0.00000000
      0.70707071	     -0.00048176	      0.00020405	     -0.00020405	      0.00048176	     -0.00009755	      0.00078834	      0.00035435	     -0.00035435	     -0.00078834	      0.00009755	     58.58269343	      0.00199074	    -58.58269343	    -14.02024268	    125.58641675	      0.00000000	      0.00000000	     -0.00000000	     -0.00000000	      0.00000000
      0.80808081	     -0.00048087	      0.00020368	     -0.00020368	      0.00048087	     -0.00009737	      0.00078689	      0.00035370	     -0.00035370	     -0.00078689	      0.00009737	     58.33138335	      0.00198707	    -58.33138335	    -14.01377059	    125.46449276	      0.00000000	      0.00000000	     -0.00000000	     -0.00000000	      0.00000000
      0.90909091	     -0.00047963	      0.00020315	     -0.00020315	      0.00047963	     -0.00009711	      0.00078485	      0.00035278	     -0.00035278	     -0.00078485	      0.00009711	     58.06801507	      0.00198193	    -58.06801507	    -14.00486303	    125.30420197	      0.00000000	      0.00000000	     -0.00000000	     -0.00000000	      0.00000000
      1.01010101	     -0.00047882	      0.00020281	     -0.00020281	      0.00047882	     -0.00009695	      0.00078353	      0.00035219	     -0.00035219	     -0.00078353	      0.00009695	     57.76015998	      0.00197861	    -57.76015998	    -13.98762569	    125.08752735	      0.00000000	      0.00000000	     -0.00000000	     -0.00000000	      0.00000000
      1.11111111	     -0.00047694	      0.00020201	     -0.00020201	      0.00047694	     -0.00009657	      0.00078044	      0.00035080	     -0.00035080	     -0.00078044	      0.00009657	     57.42356440	      0.00197081	    -57.42356440	    -13.97169131	    124.83547643	      0.00000000	      0.00000000	     -0.00000000	     -0.00000000	      0.00000000
      1.21212121	     -0.00047470	      0.00020106	     -0.00020106	      0.00047470	     -0.00009612	      0.00077678	      0.00034916	     -0.00034916	     -0.00077678	      0.00009612	     57.04936887	      0.00196155	    -57.04936887	    -13.95260809	    124.53353767	      0.00000000	      0.00000000	     -0.00000000	     -0.00000000	      0.00000000
      1.31313131	     -0.00047211	      0.00019996	     -0.00019996	      0.00047211	     -0.00009559	      0.00077255	      0.00034726	     -0.00034726	     -0.00077255	      0.00009559	     56.63479307	      0.00195087	    -56.63479307	    -13.93017953	    124.17819122	      0.00000000	      0.00000000	     -0.00000000	     -0.00000000	      0.00000000
      1.41414141	     -0.00046920	      0.00019873	     -0.00019873	      0.00046920	     -0.00009500	      0.00076778	      0.00034511	     -0.00034511	     -0.00076778	      0.00009500	     56.17693411	      0.00193883	    -56.17693411	    -13.90416741	    123.76610399	      0.00000000	      0.00000000	     -0.00000000	     -0.00000000	      0.00000000
      1.51515152	     -0.00046598	      0.00019737	     -0.00019737	      0.00046598	     -0.00009435	      0.00076252	      0.00034275	     -0.00034275	     -0.00076252	      0.00009435	     55.67306217	      0.00192555	    -55.67306217	    -13.87431414	    123.29410334	      0.00000000	      0.00000000	     -0.00000000	     -0.00000000	      0.00000000
      1.61616162	     -0.00046250	      0.00019589	     -0.00019589	      0.00046250	     -0.00009365	      0.00075682	      0.00034019	     -0.00034019	     -0.00075682	      0.00009365	     55.12062290	      0.00191116	    -55.12062290	    -13.84031682	    122.75914594	      0.00000000	      0.00000000	     -0.00000000	     -0.00000000	      0.00000000
      1.71717172	     -0.00045879	      0.00019432	     -0.00019432	      0.00045879	     -0.00009290	      0.00075076	      0.00033746	     -0.00033746	     -0.00075076	      0.00009290	     54.51721745	      0.00189584	    -54.51721745	    -13.80179989	    122.15828512	      0.00000000	      0.00000000	     -0.00000000	     -0.00000000	      0.00000000
      1.81818182	     -0.00045492	      0.00019268	     -0.00019268	      0.00045492	     -0.00009211	      0.00074441	      0.00033461	     -0.00033461	     -0.00074441	      0.00009211	     53.86056478	      0.00187982	    -53.86056478	    -13.75831753	    121.48867099	      0.00000000	      0.00000000	     -0.00000000	     -0.00000000	      0.00000000
      1.91919192	     -0.00045093	      0.00019099	     -0.00019099	      0.00045093	     -0.00009130	      0.00073789	      0.00033168	     -0.00033168	     -0.00073789	      0.00009130	     53.14849810	      0.00186336	    -53.14849810	    -13.70939398	    120.74760117	      0.00000000	      0.00000000	     -0.00000000	     -0.00000000	      0.00000000
      2.02020202	     -0.00044676	      0.00018923	     -0.00018923	      0.00044676	     -0.00009046	      0.00073106	      0.00032861	     -0.00032861	     -0.00073106	      0.00009046	     52.41719852	      0.00184611	    -52.41719852	    -13.65215462	    119.92905627	      0.00000000	      0.00000000	     -0.00000000	     -0.00000000	      0.00000000
      2.12121212	     -0.00044266	      0.00018749	     -0.00018749	      0.00044266	     -0.00008963	      0.00072435	      0.00032559	     -0.00032559	     -0.00072435	      0.00008963	     51.62377132	      0.00182916	    -51.62377132	    -13.59061255	    119.03752195	      0.00000000	      0.00000000	     -0.00000000	     -0.00000000	      0.00000000
      2.22222222	     -0.00043868	      0.00018580	     -0.00018580	      0.00043868	     -0.00008882	      0.00071785	      0.00032267	     -0.00032267	     -0.00071785	      0.00008882	     50.76477124	      0.00181273	    -50.76477124	    -13.52260729	    118.06834999	      0.00000000	      0.00000000	     -0.00000000	     -0.00000000	      0.00000000
      2.32323232	     -0.00043493	      0.00018421	     -0.00018421	      0.00043493	     -0.00008806	      0.00071170	      0.00031990	     -0.00031990	     -0.00071170	      0.00008806	     49.83883509	      0.00179721	    -49.83883509	    -13.44774311	    117.01993757	      0.00000000	      0.00000000	     -0.00000000	     -0.00000000	      0.00000000
      2.42424242	     -0.00043148	      0.00018275	     -0.00018275	      0.00043148	     -0.00008737	      0.00070606	      0.00031737	     -0.00031737	     -0.00070606	      0.00008737	     48.84559509	      0.00178296	    -48.84559509	    -13.36561983	    115.89113879	      0.00000000	      0.00000000	     -0.00000000	     -0.00000000	      0.00000000
      2.52525253	     -0.00042915	      0.00018177	     -0.00018177	      0.00042915	     -0.00008689	      0.00070224	      0.00031565	     -0.00031565	     -0.00070224	      0.00008689	     47.64583936	      0.00177333	    -47.64583936	    -13.27516274	    114.67272115	      0.00000000	      0.00000000	     -0.00000000	     -0.00000000	      0.00000000
      2.62626263	     -0.00042587	      0.00018038	     -0.00018038	      0.00042587	     -0.00008623	      0.00069687	      0.00031324	     -0.00031324	     -0.00069687	      0.00008623	     46.54006057	      0.00175977	    -46.54006057	    -13.17760936	    113.38894393	      0.00000000	      0.00000000	     -0.00000000	     -0.00000000	      0.00000000
      2.72727273	     -0.00042373	      0.00017947	     -0.00017947	      0.00042373	     -0.00008580	      0.00069337	      0.00031167	     -0.00031167	     -0.00069337	      0.00008580	     45.36282292	      0.00175093	    -45.36282292	    -13.07133585	    112.01646779	      0.00000000	      0.00000000	     -0.00000000	     -0.00000000	      0.00000000
      2.82828283	     -0.00042171	      0.00017862	     -0.00017862	      0.00042171	     -0.00008539	      0.00069007	      0.00031018	     -0.00031018	     -0.00069007	      0.00008539	     44.12314311	      0.00174259	    -44.12314311	    -12.95620678	    110.56409355	      0.00000000	      0.00000000	     -0.00000000	     -0.00000000	      0.00000000
      2.92929293	     -0.00042562	      0.00018027	     -0.00018027	      0.00042562	     -0.00008618	      0.00069647	      0.00031306	     -0.00031306	     -0.00069647	      0.00008618	     42.45631653	      0.00175877	    -42.45631653	    -12.82995980	    109.02716568	      0.00000000	      0.00000000	     -0.00000000	     -0.00000000	      0.00000000
